<?xml version="1.0" standalone="no"?>
<!DOCTYPE svg PUBLIC "-//W3C//DTD SVG 20010904//EN"
 "http://www.w3.org/TR/2001/REC-SVG-20010904/DTD/svg10.dtd">
<svg version="1.0" xmlns="http://www.w3.org/2000/svg"
 width="64.000000pt" height="64.000000pt" viewBox="0 0 64.000000 64.000000"
 preserveAspectRatio="xMidYMid meet">

<g transform="translate(0.000000,64.000000) scale(0.100000,-0.100000)"
fill="#000000" stroke="none">
<path d="M149 411 c-13 -10 -46 -60 -72 -110 l-48 -91 53 0 53 0 58 110 58
110 -39 0 c-23 0 -49 -8 -63 -19z"/>
<path d="M257 407 c-17 -26 -97 -184 -97 -192 0 -3 22 -5 49 -5 l50 0 55 107
c31 58 56 108 56 110 0 2 -22 3 -49 3 -40 0 -51 -4 -64 -23z"/>
<path d="M338 328 c-29 -57 -54 -106 -56 -110 -7 -15 69 -8 94 9 20 13 114
176 114 198 0 3 -22 5 -50 5 l-50 0 -52 -102z"/>
<path d="M526 417 c-12 -9 -17 -23 -14 -47 2 -27 9 -37 30 -44 53 -18 91 50
50 87 -22 20 -42 21 -66 4z"/>
</g>
</svg>
